<svg xmlns="http://www.w3.org/2000/svg" width="171.057" height="55.545" viewBox="0 0 171.057 55.545">
  <path id="Path_1623" data-name="Path 1623" d="M170.623,2.91s-4.515-.376-14.109-1.881c0,0-8.089-.752-19-1.129,0,0-7.148.188-14.861,0,0,0-6.4.564-14.861,1.693,0,0-6.4,1.881-12.98,3.95a34.646,34.646,0,0,1-7.337,2.069,34.5,34.5,0,0,1-4.891,0,15.48,15.48,0,0,1-4.891-1.129S71.485,4.6,61.891,2.157c0,0-12.6-2.822-34.99-2.069C19.376.464,9.406,2.722,0,3.662V14.2s1.5,1.129,3.95,3.2A101.692,101.692,0,0,1,6.584,28.87S9.218,39.4,12.6,46.177c0,0,3.2,4.515,11.475,7.713a93.045,93.045,0,0,0,18.812,1.5s6.584-1.317,13.356-3.2a42.83,42.83,0,0,0,9.406-6.4,53.423,53.423,0,0,0,8.842-13.733s1.317-3.01,2.822-7.148c0,0,.941-3.01,2.069-5.832a19.084,19.084,0,0,1,2.446-2.634,12.414,12.414,0,0,1,4.139-.376,24.351,24.351,0,0,1,3.762,1.129s1.5,3.01,4.515,9.406a96.519,96.519,0,0,0,5.644,12.98,52.3,52.3,0,0,0,8.277,9.218,53.729,53.729,0,0,0,14.485,5.267s9.406,1.881,16.743,1.129a33.245,33.245,0,0,0,6.584-1.129s3.01-.752,6.02-1.881a19.624,19.624,0,0,0,4.891-4.139,43.631,43.631,0,0,0,5.267-10.911s2.257-8.653,3.386-16.178l1.881-3.762A49.4,49.4,0,0,0,171,12.692C170.623,12.88,171.564,7.237,170.623,2.91Z" transform="translate(0 0.1)" fill="#0c5a9c"/>
</svg>
