<svg xmlns="http://www.w3.org/2000/svg" width="195.313" height="117.474" viewBox="0 0 195.313 117.474">
  <path id="Path_1621" data-name="Path 1621" d="M180.807,113.8v-66.6H130.753V0H64.764V47.194H14.505v66.4H0v3.882H195.313v-3.882H180.807ZM39.226,106.033H26.151V92.14H39.226Zm0-18.183H26.151V73.957H39.226Zm0-18.387H26.151V55.57H39.226Zm19.817,36.57H45.968V92.14H59.043Zm0-18.183H45.968V73.957H59.043Zm0-18.387H45.968V55.57H59.043Zm49.441-28.194H104.6V27.581h-14.1V41.269H86.828V12.258h3.677V24.516h14.1V12.258h3.882Zm41.065,64.764H136.474V92.14h13.075Zm0-18.183H136.474V73.957h13.075Zm0-18.387H136.474V55.57h13.075Zm19.817,36.57H156.291V92.14h13.075Zm0-18.183H156.291V73.957h13.075Zm0-18.387H156.291V55.57h13.075Z" fill="#1b9e57"/>
</svg>
