<svg xmlns="http://www.w3.org/2000/svg" width="84.022" height="117.63" viewBox="0 0 84.022 117.63">
  <path id="Path_1631" data-name="Path 1631" d="M87.008,92.811,78.144,79.494c-.039-.058-.1-.1-.139-.152l-13.189-19.8V10.4h4.2a4.2,4.2,0,0,0,0-8.4H27.005a4.2,4.2,0,0,0,0,8.4h4.2V59.543l-7.7,11.545,0,.008L9.016,92.807A18,18,0,0,0,6,102.826a16.822,16.822,0,0,0,16.8,16.8H73.217a16.822,16.822,0,0,0,16.8-16.8,17.99,17.99,0,0,0-3.013-10.015ZM27.089,107.027a4.2,4.2,0,1,1-.042-8.4h.042a4.2,4.2,0,0,1,0,8.4Zm8.4-12.6a4.2,4.2,0,1,1-.042-8.4h.042a4.2,4.2,0,1,1,0,8.4ZM62.543,71.985a21.942,21.942,0,0,0-2.941-.592c-.258-.033-.508-.091-.768-.115a22.386,22.386,0,0,0-3.431-.028c-.3.018-.588.032-.885.063a21.886,21.886,0,0,0-3.458.623c-.215.057-.42.126-.635.192a20.777,20.777,0,0,0-3.481,1.351,13.641,13.641,0,0,1-13.574-.87l-.537-.358L38.9,63.145a4.2,4.2,0,0,0,.7-2.33V10.4h16.8V60.815a4.2,4.2,0,0,0,.7,2.33l5.961,8.948C62.9,72.04,62.718,72.034,62.543,71.985Z" transform="translate(-6 -2)" fill="#0c5a9c"/>
</svg>
