<svg xmlns="http://www.w3.org/2000/svg" width="111.298" height="107.139" viewBox="0 0 111.298 107.139">
  <g id="noun_massage_740604" transform="translate(-0.205 -2.568)">
    <g id="Group_3514" data-name="Group 3514" transform="translate(0.205 2.568)">
      <g id="Group_3513" data-name="Group 3513" transform="translate(0.848 38.779)">
        <path id="Path_1632" data-name="Path 1632" d="M22.451,45.943a1.97,1.97,0,1,1,1.964-1.971A1.972,1.972,0,0,1,22.451,45.943Z" transform="translate(1.504 -36.375)" fill="#0c5a9c"/>
        <path id="Path_1633" data-name="Path 1633" d="M15.971,41.236a1.968,1.968,0,1,1,1.967-1.964A1.965,1.965,0,0,1,15.971,41.236Z" transform="translate(0.687 -36.968)" fill="#0c5a9c"/>
        <path id="Path_1634" data-name="Path 1634" d="M2.923,40.947A1.971,1.971,0,1,1,4.9,38.976,1.97,1.97,0,0,1,2.923,40.947Z" transform="translate(-0.958 -37.005)" fill="#0c5a9c"/>
        <path id="Path_1635" data-name="Path 1635" d="M15.381,48.415a1.971,1.971,0,1,1,1.976-1.971A1.971,1.971,0,0,1,15.381,48.415Z" transform="translate(0.613 -36.063)" fill="#0c5a9c"/>
        <path id="Path_1636" data-name="Path 1636" d="M9.506,45.384a1.967,1.967,0,1,1,1.97-1.968A1.973,1.973,0,0,1,9.506,45.384Z" transform="translate(-0.129 -36.444)" fill="#0c5a9c"/>
      </g>
      <path id="Path_1637" data-name="Path 1637" d="M39.25,20.988a9.3,9.3,0,1,1,10.858-7.314A9.274,9.274,0,0,1,39.25,20.988" transform="translate(3.787 -2.568)" fill="#0c5a9c"/>
      <path id="Path_1638" data-name="Path 1638" d="M9.333,68.711A9.138,9.138,0,1,0,.205,59.578a9.175,9.175,0,0,0,9.128,9.133Z" transform="translate(-0.205 3.468)" fill="#0c5a9c"/>
      <path id="Path_1639" data-name="Path 1639" d="M35,51.284a4.675,4.675,0,0,0,3.587-1.852L51.425,32.279l15.72,14.947v6.749l14.3,2.3V37.252a3.9,3.9,0,0,0-1.177-2.886L61.241,15.471a7.072,7.072,0,0,0-4.354-2.084A6.981,6.981,0,0,0,51.471,16.4c-.12.1-19.631,27.082-19.631,27.082-1.408,1.834-1.727,4.819-.1,6.424A4.647,4.647,0,0,0,35,51.284Z" transform="translate(3.634 -1.204)" fill="#0c5a9c"/>
    </g>
    <g id="Group_3515" data-name="Group 3515" transform="translate(0.75 54.493)">
      <path id="Path_1640" data-name="Path 1640" d="M29.464,71.879V69.232l76.592-.151c2.655,0,4.812-2.427,4.821-5.433s-2.964-5.149-4.81-5.444c0,0-43.877-8.164-55.828-9.373-1.686-.171-16.4-.947-24.43,3.754-2.874,1.684-5.4,4.795-5.7,8.207a8.277,8.277,0,0,0-.024.975V71.879H.689V89.557H5.2V76.395h14.88V99.2a4.69,4.69,0,0,0,9.38,0V76.395h77.462V89.557h4.516V71.879Z" transform="translate(-0.689 -48.678)" fill="#0c5a9c"/>
    </g>
  </g>
</svg>
