<svg xmlns="http://www.w3.org/2000/svg" width="85.206" height="109.754" viewBox="0 0 85.206 109.754">
  <path id="Path_1630" data-name="Path 1630" d="M33.44,22.407c-9.731.162-16.7,8.758-17.191,16.056-1.135,13.947,5.676,28.219,7.46,41.031S24.2,93.928,26.3,109.335c2.108,15.569,6.487,23.84,12.812,22.705s7.46-19.462,9.244-30.976c.973-6.649,4.054-14.434,10.379-14.434s9.244,7.785,10.379,14.434c1.784,11.515,2.757,29.841,9.244,30.976s10.7-7.136,12.812-22.705c2.108-15.407.811-17.029,2.595-29.841s8.433-26.922,7.46-41.031c-.649-7.3-5.676-14.11-13.623-15.569C77.066,20.947,71.065,26.3,58.74,26.3,47.711,26.3,43.008,22.082,33.44,22.407Z" transform="translate(-16.122 -22.389)" fill="#0c5a9c"/>
</svg>
